<svg width="10811" height="7912" viewBox="0 0 10811 7912" fill="none" xmlns="http://www.w3.org/2000/svg">
<path d="M2443.33 579.256L3457.37 37.6349L4091.26 2455.03L4097.93 2480.44L4106.56 2455.63L4579.23 1096.39L5048.94 2447.13L5057.57 2471.94L5064.24 2446.53L5700.5 20.1137L7217.77 1070.96L7217.95 1071.08L10799.5 3692.84L10140.5 4640.69L7087.18 2043.41L7075.14 2033.17L7074.02 2048.93L6933.52 4018.93L6933.49 4019.36L6933.51 4019.79L7073.71 7904H2330.36L2610.95 5145.87L2610.96 5145.81L2986.45 1722.37L2989.15 1697.79L2972.57 1716.13L333.94 4634.55L8.60429 2428.51L2443.33 579.256ZM5055.43 2417.06L4587.25 1070.73L5105.71 575.894L5679.26 38.0082L5055.43 2417.06ZM4100.07 2425.56L3472.9 33.7794L4568.25 1079.23L4100.07 2425.56ZM3492.6 18.8189L3982.29 497.846L3484.78 22.9967L3492.6 18.8189Z" stroke="black" stroke-width="16"/>
</svg>
