<svg width="945" height="684" viewBox="0 0 945 684" fill="none" xmlns="http://www.w3.org/2000/svg">
<path d="M497.371 146.182L541.471 1.84868L578.494 146.212L570.009 233.739L541.589 310.358L508.475 187.41C508.492 187.109 508.5 186.806 508.5 186.5C508.5 183.213 507.522 180.167 505.876 177.762L497.371 146.182ZM579.484 146.049L542.841 3.16689L682.227 233.978L657.363 683.5H523V245.186L541.03 312.13L541.437 313.642L541.982 312.174L570.969 234.026L570.991 233.965L570.998 233.9L579.498 146.222L579.506 146.134L579.484 146.049ZM683.162 233.593L682.326 232.183L682.325 232.206L542.399 0.5H657.604L855.203 234.089L944.234 568.098L856.011 524.982L683.164 233.597L683.162 233.593ZM522 244V683.5H473V235H472V683.5H310.991L250.516 240.081L317.905 99.8111L432.827 1.19107L418.502 146.124L418.5 146.149V146.173V233.852V233.934L418.526 234.012L445.026 312.161L445.522 313.621L445.978 312.148L484.538 187.624C485.027 194.765 490.131 200.5 496.5 200.5C502.155 200.5 506.812 195.979 508.128 189.967L522.681 244H522ZM432.097 0.5L317.174 99.1206L317.095 99.1889L317.049 99.2835L249.563 239.754L35.8552 568.184L0.548922 525.246L77.6353 234.122L334.981 0.5H432.097ZM433.755 1.96673L496.318 146.202L485.81 180.137C485.358 181.168 485.013 182.272 484.791 183.427L445.478 310.379L419.5 233.769V146.198L433.755 1.96673ZM485.757 183.689L486.76 180.45C488.613 176.295 492.312 173.5 496.5 173.5C499.871 173.5 502.924 175.31 504.954 178.183L507.467 187.514C507.027 194.286 502.22 199.5 496.5 199.5C490.497 199.5 485.5 193.758 485.5 186.5C485.5 185.533 485.589 184.592 485.757 183.689ZM504.338 175.895C502.245 173.785 499.514 172.5 496.5 172.5C493.113 172.5 490.084 174.122 487.917 176.714L496.817 147.972L504.338 175.895ZM507.5 420.5C507.5 427.758 502.503 433.5 496.5 433.5C490.497 433.5 485.5 427.758 485.5 420.5C485.5 413.242 490.497 407.5 496.5 407.5C502.503 407.5 507.5 413.242 507.5 420.5ZM496.5 434.5C503.2 434.5 508.5 428.154 508.5 420.5C508.5 412.846 503.2 406.5 496.5 406.5C489.8 406.5 484.5 412.846 484.5 420.5C484.5 428.154 489.8 434.5 496.5 434.5ZM507.5 264.5C507.5 271.758 502.503 277.5 496.5 277.5C490.497 277.5 485.5 271.758 485.5 264.5C485.5 257.242 490.497 251.5 496.5 251.5C502.503 251.5 507.5 257.242 507.5 264.5ZM496.5 278.5C503.2 278.5 508.5 272.154 508.5 264.5C508.5 256.846 503.2 250.5 496.5 250.5C489.8 250.5 484.5 256.846 484.5 264.5C484.5 272.154 489.8 278.5 496.5 278.5ZM507.5 498.5C507.5 505.758 502.503 511.5 496.5 511.5C490.497 511.5 485.5 505.758 485.5 498.5C485.5 491.242 490.497 485.5 496.5 485.5C502.503 485.5 507.5 491.242 507.5 498.5ZM496.5 512.5C503.2 512.5 508.5 506.154 508.5 498.5C508.5 490.846 503.2 484.5 496.5 484.5C489.8 484.5 484.5 490.846 484.5 498.5C484.5 506.154 489.8 512.5 496.5 512.5ZM507.5 342.5C507.5 349.758 502.503 355.5 496.5 355.5C490.497 355.5 485.5 349.758 485.5 342.5C485.5 335.242 490.497 329.5 496.5 329.5C502.503 329.5 507.5 335.242 507.5 342.5ZM496.5 356.5C503.2 356.5 508.5 350.154 508.5 342.5C508.5 334.846 503.2 328.5 496.5 328.5C489.8 328.5 484.5 334.846 484.5 342.5C484.5 350.154 489.8 356.5 496.5 356.5ZM507.5 576.5C507.5 583.758 502.503 589.5 496.5 589.5C490.497 589.5 485.5 583.758 485.5 576.5C485.5 569.242 490.497 563.5 496.5 563.5C502.503 563.5 507.5 569.242 507.5 576.5ZM496.5 590.5C503.2 590.5 508.5 584.154 508.5 576.5C508.5 568.846 503.2 562.5 496.5 562.5C489.8 562.5 484.5 568.846 484.5 576.5C484.5 584.154 489.8 590.5 496.5 590.5Z" stroke="black"/>
</svg>
