<svg width="4549" height="2991" viewBox="0 0 4549 2991" fill="none" xmlns="http://www.w3.org/2000/svg">
<path d="M3292 2801H1232.23L1325.49 1517.22L1325.52 1516.79L1325.43 1516.37L1232.01 1081.71L1233.7 975.255L1257.27 834.997L1257.31 834.75V834.5V170.284L1786.22 3.23324L2169.38 200.879C2236.02 235.25 2315.42 234.006 2380.95 197.564L2730.33 3.2479L3291.64 179.091V834.181V834.432L3291.68 834.678L3292 836.567V2801ZM1251.31 834.25L1234.34 935.262L1246.37 179.474L1251.31 175.042V834.25ZM1240.29 184.936L1227.71 974.708L1223.81 997.927L578.073 1290.67L575.621 1291.79L576.462 1294.34L842.867 2104.91L840.395 2105.67L609.234 2176.78L607.089 2177.44L4.45831 1293.89L1240.29 184.936ZM4544.5 1293.57L3941.86 2177.12L3939.72 2176.46L3708.56 2105.35L3706.09 2104.59L3972.49 1294.02L3973.33 1291.47L3970.88 1290.36L3325.15 997.609L3298 836.067V177V175.045L4544.5 1293.57ZM1232 2807H3292V2988H1232V2807ZM839.292 2112.28L840.016 2114.64L614.664 2184.23L613.866 2181.63L839.292 2112.28ZM841.78 2120.37L862.948 2189.18L637.523 2258.53L616.428 2189.96L841.78 2120.37ZM3935.09 2181.32L3934.29 2183.91L3708.94 2114.32L3709.66 2111.97L3935.09 2181.32ZM3707.17 2120.05L3932.52 2189.64L3911.43 2258.21L3686.01 2188.86L3707.17 2120.05Z" stroke="black" stroke-width="6"/>
</svg>
