<svg width="2365" height="3016" viewBox="0 0 2365 3016" fill="none" xmlns="http://www.w3.org/2000/svg">
<path d="M2233.04 3015.5H490.211C476.349 3015.5 466.483 3002.03 470.666 2988.81L776.175 2023.64C777.606 2019.12 777.502 2014.25 775.88 2009.8L289.186 673.253C288.608 671.666 287.845 670.152 286.913 668.744L3.91874 241.12C-3.33623 230.157 1.45674 215.295 13.7496 210.636L563.28 2.38437C569.596 -0.00901023 576.685 0.861922 582.234 4.71284L1159.16 405.133C1166.41 410.161 1175.99 410.255 1183.33 405.37L1785.95 4.39873C1791.46 0.733524 1798.4 -0.0477057 1804.59 2.30084L2350.76 209.675C2363.79 214.622 2368.19 230.851 2359.45 241.704L2017.68 665.782C2014.99 669.115 2013.36 673.174 2012.99 677.439L1898.71 2012.02C1898.44 2015.13 1898.86 2018.27 1899.93 2021.21L2252.31 2987.98C2257.18 3001.35 2247.28 3015.5 2233.04 3015.5Z" stroke="black"/>
</svg>
